<svg xmlns="http://www.w3.org/2000/svg" width="1084" height="317" viewBox="0 0 1084 317" fill="none">
<path d="M116.25 0H125L131.25 1.875L139.375 6.25L148.125 12.5L154.375 17.5L163.125 22.5L165.625 23.125L174.375 18.75L180.625 13.75L191.875 5.625L200.625 1.25L205 0H213.75L220.625 2.5L226.25 6.875L230.625 13.125L235 23.125L240.625 41.25L244.375 48.75L250 50L278.125 50.625L285.625 51.875L293.125 55L298.75 60L302.5 66.875L303.125 69.375V81.25L300 93.125L295 108.125L294.375 111.25V117.5L301.25 123.75L310.625 130L318.75 136.25L323.125 140L328.125 146.875L330.625 153.75V163.125L328.125 169.375L324.375 175L318.75 180.625L306.875 189.375L301.25 193.125L295 198.75L294.375 199.375V205L296.875 214.375L302.5 231.25L303.75 238.75V244.375L301.875 251.25L298.125 257.5L292.5 261.875L286.875 264.375L281.25 265.625L275 266.25H252.5L245 267.5L240 277.5L235 293.75L231.875 301.25L228.125 307.5L223.125 312.5L217.5 315.625L211.875 316.875L203.75 316.25L196.25 313.125L188.75 308.75L180.625 302.5L173.75 297.5L166.25 293.75L162.5 294.375L155 298.75L148.125 304.375L142.5 308.75L133.125 313.75L125 316.25L118.125 316.875L111.875 315L106.25 311.25L101.25 305.625L96.875 296.875L92.5 283.75L89.375 273.75L86.25 267.5L78.125 266.25H56.25L46.25 265L38.125 261.875L31.875 256.25L28.75 251.25L27.5 246.875V235L30.625 223.125L35.625 208.125L36.25 205V199.375L30.625 193.75L23.125 188.75L14.375 182.5L6.875 175.625L3.125 170.625L0.625 165.625L0 163.125V153.75L2.5 146.875L7.5 140L13.75 134.375L24.375 126.875L30.625 122.5L36.25 117.5V111.875L33.75 102.5L28.125 85.625L26.875 78.125V71.875L29.375 63.75L33.125 58.75L37.5 55L42.5 52.5L51.25 50.625L80.625 50L86.25 48.75L90 40.625L95.625 22.5L99.375 13.75L104.375 6.875L110 2.5L116.25 0Z" fill="#4AAEF8"/>
<path d="M600.875 187.438H619L622.75 193.062L633.375 211.188L649.625 238.688L657.125 252.438L662.75 263.062L663.375 187.438H679V288.062H660.875L654.625 278.062L645.875 263.062L627.75 232.438L618.375 214.312L617.125 211.812L616.5 288.062H600.875V187.438Z" fill="#185D95"/>
<path d="M473.75 41.4375H491.875L496.875 49.5625L505 63.3125L515.625 81.4375L525 97.0625L535.625 117.688L536.25 41.4375H551.875V142.062H533.75L530 136.438L519.375 118.312L510 102.688L501.25 87.6875L493.75 73.3125L490 66.4375L489.375 142.062H473.75V41.4375Z" fill="#AC2C52"/>
<path d="M576.875 41.4375H618.75L628.75 43.9375L636.25 47.6875L642.5 52.6875L647.5 59.5625L651.875 68.9375L654.375 80.1875L655 87.0625V97.0625L653.125 110.188L650 119.562L645 127.688L640.625 132.688L634.375 137.062L626.875 140.188L617.5 142.062H576.875L576.25 140.188V44.5625L576.875 41.4375ZM593.125 55.8125V127.688H616.25L621.875 126.438L627.5 123.312L631.875 119.562L635 114.562L636.875 108.312L637.5 103.938V79.5625L635.625 70.8125L633.125 65.8125L628.75 60.8125L623.75 57.6875L616.875 55.8125H593.125Z" fill="#AC2C52"/>
<path d="M884.375 39.5625H894.375L903.75 41.4375L913.75 46.4375L920 52.0625L923.75 56.4375L928.75 66.4375L931.25 74.5625L932.5 82.6875V100.812L930.625 111.438L927.5 120.188L923.75 127.062L918.125 133.312L913.125 137.688L905 141.438L898.125 143.312L893.125 143.938H885L875 142.062L867.5 138.938L860.625 133.938L855 127.688L850 118.312L846.875 107.688L845.625 96.4375V86.4375L846.875 75.8125L850 65.1875L855 55.8125L861.25 48.9375L870 43.3125L876.875 40.8125L884.375 39.5625ZM887.5 53.9375L880.625 55.1875L874.375 58.3125L869.375 62.6875L865.625 69.5625L863.75 75.1875L863.125 80.1875V103.312L864.375 110.812L866.875 117.062L871.25 122.688L876.25 126.438L883.125 128.938L890 129.562L897.5 128.312L905 124.562L910 119.562L913.75 112.062L915 106.438V77.0625L913.125 70.1875L910 63.9375L904.375 58.3125L898.125 55.1875L891.25 53.9375H887.5Z" fill="#AC2C52"/>
<path d="M675 41.4375H739.375V55.8125H691.25V83.9375H735V98.3125H691.25V127.688H739.375V142.062H675V41.4375Z" fill="#AC2C52"/>
<path d="M501.5 187.438H517.125L517.75 253.062L519 261.188L521.5 266.812L525.875 271.812L532.75 274.312H544.625L550.875 272.438L555.875 268.062L558.375 263.062L559.625 258.062L560.25 241.188V191.188L560.875 187.438H576.5V256.188L574.625 266.812L571.5 274.938L567.75 279.938L562.75 284.312L556.5 287.438L548.375 289.312L542.125 289.938H535.875L525.875 288.688L518.375 286.188L512.75 282.438L508.375 278.062L504 269.312L502.125 261.812L501.5 256.812V187.438Z" fill="#195E96"/>
<path d="M729 187.438H749.625L759 214.312L774 258.688L782.75 284.312L783.375 288.062H766.5L757.75 261.812V260.562L720.25 261.188L712.125 286.188L710.875 288.062H694.625L696.5 281.188L706.5 251.812L715.875 224.938L728.375 188.062L729 187.438ZM738.375 202.438L729.625 228.062L724 245.562V246.812H753.375L752.125 241.188L740.875 206.812L739 202.438H738.375Z" fill="#185E95"/>
<path d="M953.125 41.4375H1001.88L1009.38 43.3125L1015.62 47.0625L1020 51.4375L1024.38 60.1875L1025.62 66.4375V76.4375L1023.75 84.5625L1020.62 90.8125L1015.62 96.4375L1010 99.5625L1004.38 101.438L1000 102.062H969.375V142.062H953.125V41.4375ZM969.375 55.8125V87.6875H998.75L1003.75 85.8125L1007.5 81.4375L1008.12 79.5625V63.3125L1005.62 58.9375L1001.25 56.4375L1000 55.8125H969.375Z" fill="#AC2C52"/>
<path d="M440.875 185.562H453.375L462.75 187.438L472.75 192.438L480.25 199.312L480.875 201.812L474.625 207.438L470.875 210.562H469L466.5 207.438L459.625 203.062L454.625 201.188L451.5 200.562H441.5L435.25 202.438L430.875 205.562L429 209.938V217.438L431.5 222.438L437.75 225.562L447.75 228.062L460.875 231.188L469 234.312L474.625 238.688L479 243.688L481.5 249.312L482.125 252.438V264.312L479.625 272.438L475.875 278.062L472.75 281.188L467.75 284.938L460.25 288.062L454.625 289.312L448.375 289.938H442.75L433.375 288.688L425.875 286.188L419 282.438L411.5 276.188L409 272.438L414.625 266.812L419.625 262.438L422.125 263.688L427.125 268.688L433.375 272.438L439.625 274.312L449 274.938L455.875 273.688L462.125 269.938L465.25 263.688V254.938L463.375 251.188L459.625 248.062L452.75 245.562L434.625 241.812L426.5 238.688L420.875 234.938L415.875 229.938L413.375 224.938L412.125 219.938V209.312L414.625 201.188L419 195.562L424 191.188L430.25 188.062L437.125 186.188L440.875 185.562Z" fill="#195F96"/>
<path d="M208.75 131.25H213.75L220 134.375L222.5 138.125L223.125 140V145.625L220.625 150.625L213.75 156.25L201.875 165L188.75 175L176.875 183.75L163.75 193.75L155.625 199.375L153.125 200.625H146.875L143.125 198.75L136.875 193.125L111.25 167.5L108.125 162.5L107.5 157.5L109.375 152.5L111.875 149.375L115 147.5L121.25 146.875L126.25 148.75L150 172.5L153.125 171.875L166.25 161.875L178.125 153.125L191.25 143.125L203.125 134.375L206.875 131.875L208.75 131.25Z" fill="#FDFDFD"/>
<path d="M793.75 39.5625H803.75L812.5 41.4375L818.75 43.9375L826.875 50.1875L831.875 57.0625L834.375 61.4375V62.6875L821.875 69.5625L820 68.9375L816.875 63.3125L813.75 59.5625L808.75 56.4375L805 55.1875L796.875 54.5625L790 55.8125L783.75 58.9375L779.375 63.3125L776.25 69.5625L774.375 76.4375L773.75 92.6875L774.375 107.062L776.875 115.812L780.625 121.438L785.625 125.812L792.5 128.312L799.375 128.938L806.875 127.688L813.125 124.562L818.125 118.938L821.875 112.688L828.75 116.438L834.375 120.188L833.75 123.312L828.125 131.438L823.75 135.812L816.875 140.188L810 142.688L802.5 143.938H794.375L784.375 142.062L776.875 138.938L771.25 134.562L766.25 129.562L761.875 122.688L758.75 114.562L756.875 105.812L756.25 100.188V82.6875L758.125 71.4375L761.25 62.6875L765 55.8125L770.625 49.5625L775 45.8125L782.5 42.0625L789.375 40.1875L793.75 39.5625Z" fill="#AC2C52"/>
<path d="M780.875 187.438H857.125V201.812H827.125V288.062H810.875V201.812H780.875V187.438Z" fill="#185E95"/>
<path d="M1039.38 41.4375H1083.12V54.5625H1069.38V128.938H1083.12V142.062H1039.38V128.938L1052.5 128.312L1053.12 54.5625H1039.38V41.4375Z" fill="#AC2C52"/>
<path d="M409.375 41.4375H453.125V54.5625H439.375V128.938H453.125V142.062H409.375V128.938H423.125V54.5625H409.375V41.4375Z" fill="#AC2C52"/>
</svg>